<svg width="46" height="44" viewBox="0 0 46 44" fill="none" xmlns="http://www.w3.org/2000/svg">
<path d="M6.65179 43.2747C9.81867 43.2747 12.4062 40.6627 12.4062 37.466V0.0410156H46.006V37.466C46.006 40.6627 43.4184 43.2747 40.2516 43.2747" fill="#46B3DF"/>
<path d="M34.4972 37.4659V33.0607H0.8974V37.4659C0.8974 40.6626 3.48497 43.2746 6.65185 43.2746H40.2516C37.0847 43.2746 34.4972 40.6626 34.4972 37.4659Z" fill="#1992C4"/>
<path d="M22.718 7.48682H18.4311V9.35807H22.718V7.48682Z" fill="white"/>
<path d="M39.2088 7.48682H26.0393V9.35807H39.2088V7.48682Z" fill="#F7C604"/>
<path d="M22.718 14.1141H18.4311V15.9854H22.718V14.1141Z" fill="white"/>
<path d="M39.2088 14.1141H26.0393V15.9854H39.2088V14.1141Z" fill="#F7C604"/>
<path d="M22.718 20.7417H18.4311V22.6129H22.718V20.7417Z" fill="white"/>
<path d="M39.2088 20.7417H26.0393V22.6129H39.2088V20.7417Z" fill="#F7C604"/>
<path d="M22.718 27.369H18.4311V29.2403H22.718V27.369Z" fill="white"/>
<path d="M39.2088 27.369H26.0393V29.2403H39.2088V27.369Z" fill="#F7C604"/>
</svg>
